<?xml version="1.0" encoding="utf-8"?>
<!-- Generator: Adobe Illustrator 26.4.1, SVG Export Plug-In . SVG Version: 6.00 Build 0)  -->
<svg version="1.1" id="Capa_1" xmlns="http://www.w3.org/2000/svg" xmlns:xlink="http://www.w3.org/1999/xlink" x="0px" y="0px"
	 viewBox="0 0 1920 1080" style="enable-background:new 0 0 1920 1080;" xml:space="preserve">
<style type="text/css">
	.st0{fill:#2F241D;}
	.st1{font-family:'JerseyM54';}
	.st2{font-size:36px;}
	.st3{font-size:83px;}
	.st4{opacity:0.18;enable-background:new    ;}
	.st5{opacity:0.17;enable-background:new    ;}
	.st6{opacity:0.31;enable-background:new    ;}
	.st7{opacity:0.3;enable-background:new    ;}
	.st8{opacity:0.24;enable-background:new    ;}
	.st9{opacity:0.19;enable-background:new    ;}
	.st10{opacity:0.25;enable-background:new    ;}
	.st11{opacity:0.47;enable-background:new    ;}
	.st12{opacity:0.16;enable-background:new    ;}
	.st13{opacity:0.12;enable-background:new    ;}
	.st14{opacity:0.2;enable-background:new    ;}
	.st15{opacity:0.11;enable-background:new    ;}
	.st16{opacity:0.14;enable-background:new    ;}
	.st17{opacity:0.46;enable-background:new    ;}
	.st18{opacity:0.28;enable-background:new    ;}
	.st19{opacity:0.29;enable-background:new    ;}
	.st20{opacity:0.23;enable-background:new    ;}
	.st21{opacity:0.26;enable-background:new    ;}
	.st22{opacity:0.21;enable-background:new    ;}
	.st23{opacity:0.54;stroke:#000000;stroke-miterlimit:10;enable-background:new    ;}
	.st24{fill:none;stroke:#000000;stroke-miterlimit:10;}
</style>
<g id="Image">
	
		<image style="overflow:visible;enable-background:new    ;" width="894" height="886" xlink:href="../../Downloads/pantalon.jpg"  transform="matrix(0.46 0 0 0.48 543.4745 145.0921)">
	</image>
	
		<image style="overflow:visible;enable-background:new    ;" width="600" height="600" xlink:href="../../Downloads/camisa.jpg"  transform="matrix(0.74 0 0 0.78 92.4745 78.0921)">
	</image>
	
		<image style="overflow:visible;enable-background:new    ;" width="1196" height="779" xlink:href="4354BD0D.png"  transform="matrix(0.1805 0 0 0.1805 1000.4744 118.2062)">
	</image>
	
		<image style="overflow:visible;enable-background:new    ;" width="614" height="553" xlink:href="Camisa plantilla2.png"  transform="matrix(0.58 0 0 0.51 939.9245 261.1221)">
	</image>
</g>
<g id="Logo">
	<g>
		<path d="M186.3,297.4c-1.5,1.7-2.2,2.5-3.7,4.2c-4.1,1.2-6.2,1.9-10.3,3.3c-1.6-0.7-2.4-1.1-4-1.8c-0.1-1.9-0.2-2.9-0.3-4.8
			c2.4-0.9,3.6-1.3,6-2.1c0.1,1,0.1,1.4,0.2,2.4c2.4-0.8,3.6-1.2,6.1-1.9c-0.2-2.6-0.2-4-0.4-6.6c-3.3,1-5,1.5-8.2,2.6
			c-1.6-0.7-2.5-1.1-4.1-1.8c-0.3-4.5-0.5-6.8-0.8-11.3c1.5-1.8,2.2-2.7,3.7-4.5c4.2-1.4,6.3-2.1,10.6-3.4c1.6,0.8,2.5,1.2,4.1,2
			c0.1,1.9,0.1,2.8,0.3,4.6c-2.5,0.7-3.7,1-6.1,1.8c0-0.9-0.1-1.3-0.1-2.2c-2.5,0.8-3.7,1.1-6.1,2c0.2,2.6,0.3,4,0.4,6.6
			c3.3-1.1,5-1.6,8.3-2.6c1.6,0.8,2.4,1.2,4.1,2C185.9,290.6,186.1,292.8,186.3,297.4L186.3,297.4L186.3,297.4z"/>
		<path d="M204,296.3c-0.7-2.5-1-3.8-1.8-6.4c-2.6,0.5-3.9,0.8-6.4,1.4c-0.5,2.8-0.7,4.2-1.1,7c-2.5,0.6-3.7,0.9-6.2,1.6
			c1.6-10.5,3.3-21,5.1-31.4c3.5-0.8,5.2-1.2,8.8-1.9c2.7,9.5,5.3,19,7.8,28.6C207.8,295.6,206.5,295.8,204,296.3L204,296.3
			L204,296.3z M200.8,284.7c-1-3.4-1.4-5.1-2.4-8.5c-0.6,3.7-1,5.6-1.6,9.4C198.4,285.2,199.2,285.1,200.8,284.7L200.8,284.7
			L200.8,284.7z"/>
		<path d="M226.1,292.9c-2.8-6-4.3-9-7.2-14.8c0.2,6.3,0.3,9.4,0.4,15.7c-2.5,0.3-3.7,0.5-6.1,0.9c-0.3-10-0.6-19.9-1-29.9
			c2.7-0.4,4-0.6,6.8-1c2.9,5.9,4.4,8.9,7.3,14.9c-0.1-6.3-0.2-9.4-0.3-15.7c2.5-0.3,3.8-0.4,6.3-0.6c0.2,10,0.3,19.9,0.5,29.9
			c0,0,0,0,0,0C230.1,292.5,228.7,292.6,226.1,292.9L226.1,292.9z"/>
		<path d="M261.8,261.7c1.6,1.3,2.5,2,4.1,3.3c-0.1,9.5-0.1,14.2-0.2,23.6c-1.6,1.2-2.4,1.8-4,3c-6.1-0.2-9.1-0.2-15.2-0.1
			c0-10-0.1-20-0.2-30C252.4,261.4,255.6,261.5,261.8,261.7L261.8,261.7z M259.4,286c0-7.6,0.1-11.3,0.1-18.9
			c-2.8-0.1-4.2-0.1-7-0.1v18.9C255.3,285.9,256.7,285.9,259.4,286L259.4,286L259.4,286z"/>
		<path d="M274.8,292.4c-2.5-0.2-3.7-0.3-6.2-0.5c0.1-10,0.3-20,0.4-29.9c2.5,0.2,3.8,0.3,6.4,0.5
			C275.1,272.5,275,282.5,274.8,292.4L274.8,292.4z"/>
		<path d="M293.8,294.9c-6.4-1.1-9.6-1.5-16-2.1c0.2-10,0.4-20,0.6-29.9c6.5,0.7,9.8,1.1,16.3,2.2c-0.1,2.2-0.1,3.3-0.2,5.5
			c-4-0.7-6-1-10-1.5c-0.1,2.7-0.1,4-0.2,6.7c3.4,0.4,5.1,0.7,8.5,1.2c-0.1,2.2-0.1,3.3-0.2,5.5c-3.4-0.5-5.1-0.8-8.5-1.2
			c-0.1,2.7-0.1,4-0.2,6.7c4,0.5,6,0.8,9.9,1.5C293.9,291.5,293.9,292.6,293.8,294.9L293.8,294.9L293.8,294.9z"/>
		<path d="M315.7,296.4c-1.6,0.8-2.5,1.3-4.1,2.1c-4.4-1.1-6.5-1.5-10.9-2.4c-1.5-1.5-2.3-2.3-3.8-3.9c0.3-9.4,0.5-14.2,0.9-23.6
			c1.7-1,2.5-1.4,4.2-2.4c4.5,0.9,6.7,1.4,11.1,2.4c1.5,1.6,2.3,2.5,3.9,4.1c-0.1,1.9-0.1,2.8-0.2,4.7c-2.5-0.6-3.7-0.9-6.2-1.5
			c0-0.9,0.1-1.4,0.1-2.3c-2.7-0.6-4-0.9-6.7-1.5c-0.3,7.5-0.5,11.3-0.8,18.8c2.6,0.5,4,0.8,6.6,1.5c0.1-2.7,0.2-4,0.3-6.6
			c-1.7-0.4-2.5-0.6-4.2-0.9c0.1-2.2,0.1-3.3,0.2-5.5c4.1,0.9,6.2,1.4,10.4,2.5C316.1,287.7,316,290.6,315.7,296.4L315.7,296.4
			L315.7,296.4z"/>
		<path d="M337.4,303.1c-1.6,0.7-2.4,1-4,1.8c-4.4-1.5-6.6-2.2-11.1-3.5c-1.5-1.7-2.2-2.5-3.7-4.2c0.5-9.4,0.8-14.1,1.3-23.5
			c1.6-0.8,2.5-1.2,4.1-2c4.6,1.3,6.9,2,11.4,3.6c1.5,1.8,2.2,2.7,3.7,4.5C338.4,289.1,338.1,293.8,337.4,303.1L337.4,303.1z
			 M331.6,298.7c0.5-7.5,0.7-11.2,1.2-18.7c-2.8-0.9-4.2-1.4-7-2.2c-0.5,7.5-0.7,11.2-1.1,18.7C327.5,297.3,328.9,297.8,331.6,298.7
			L331.6,298.7L331.6,298.7z"/>
	</g>
	<g>
		<path d="M821.4,186c-0.2,0.4-0.3,0.5-0.5,0.9c-0.5,0.2-0.7,0.3-1.2,0.6c0.1,0.8,0.2,1.2,0.2,2c-0.3,0.2-0.5,0.3-0.8,0.4
			c-0.3-2.3-0.5-3.4-0.8-5.7c0.8-0.5,1.2-0.8,2.1-1.2c0.3,0.1,0.4,0.2,0.7,0.3C821.3,184.4,821.3,185,821.4,186L821.4,186L821.4,186
			z M820.5,186c-0.1-0.7-0.1-1-0.2-1.7c-0.4,0.2-0.5,0.3-0.9,0.5c0.1,0.7,0.1,1,0.2,1.7C819.9,186.3,820.1,186.2,820.5,186
			L820.5,186L820.5,186z"/>
		<path d="M824.6,187.9c-0.1-0.5-0.2-0.8-0.4-1.4c-0.4,0.1-0.6,0.2-1,0.3c0,0.6-0.1,0.9-0.1,1.5c-0.4,0.1-0.6,0.2-1,0.3
			c0.1-2.6,0.2-3.9,0.4-6.5c0.6-0.2,0.8-0.3,1.4-0.5c0.7,2.4,1,3.6,1.6,6.1C825.2,187.7,825,187.8,824.6,187.9L824.6,187.9
			L824.6,187.9z M823.9,185.4c-0.2-0.7-0.3-1.1-0.5-1.8c-0.1,0.8-0.1,1.2-0.2,2C823.6,185.5,823.7,185.4,823.9,185.4L823.9,185.4
			L823.9,185.4z"/>
		<path d="M828.6,180.5c0.3,0.2,0.5,0.4,0.8,0.6c0.1,2.2,0.1,3.3,0.2,5.5c-0.3,0.3-0.5,0.4-0.7,0.7c-1.2,0-1.7,0.1-2.8,0.2
			c-0.2-2.6-0.3-3.9-0.4-6.5C826.8,180.8,827.4,180.7,828.6,180.5L828.6,180.5L828.6,180.5z M828.5,186.1c-0.1-1.7-0.1-2.6-0.2-4.3
			c-0.5,0.1-0.8,0.1-1.3,0.2c0.1,1.7,0.2,2.5,0.2,4.2C827.7,186.2,827.9,186.1,828.5,186.1L828.5,186.1z"/>
		<path d="M834.4,187.7c-0.6-0.1-0.9-0.1-1.4-0.2c-0.5-1.2-0.7-1.8-1.1-3c-0.2,0-0.2,0-0.4,0c0,1.2,0,1.7,0.1,2.9
			c-0.5,0-0.8,0-1.2,0c-0.1-2.8-0.1-4.2-0.2-7c1.2-0.1,1.9-0.1,3.2-0.1c0.4,0.3,0.5,0.5,0.9,0.8c0,1.1,0,1.6,0,2.7
			c-0.4,0.3-0.6,0.5-0.9,0.8C833.7,185.8,833.9,186.4,834.4,187.7L834.4,187.7L834.4,187.7z M831.4,183.2c0.5,0,0.8,0,1.4,0
			c0-0.6,0-1,0-1.6c-0.6,0-0.8,0-1.4,0C831.4,182.2,831.4,182.5,831.4,183.2L831.4,183.2z"/>
		<path d="M838.8,188.7c-1.6-0.5-2.3-0.6-3.7-0.9c0-3,0.1-4.4,0.1-7.4c1.5,0.1,2.3,0.2,4,0.6c0,0.6,0,0.9-0.1,1.4
			c-1-0.2-1.5-0.3-2.5-0.4c0,0.7,0,1,0,1.7c0.8,0.1,1.2,0.2,2.1,0.4c0,0.6,0,0.9-0.1,1.4c-0.8-0.2-1.2-0.3-2-0.4c0,0.7,0,1,0,1.7
			c0.9,0.2,1.4,0.3,2.4,0.6C838.8,187.9,838.8,188.1,838.8,188.7L838.8,188.7L838.8,188.7z"/>
		<path d="M844.4,189.9c-0.5,0.1-0.7,0.2-1.1,0.4c-1.1-0.5-1.7-0.7-2.7-1c-0.4-0.5-0.6-0.7-0.9-1.1c0-0.5,0-0.8,0.1-1.2
			c0.6,0.2,0.9,0.3,1.6,0.5c0,0.3,0,0.4,0,0.6c0.6,0.2,1,0.3,1.6,0.6c0.1-0.7,0.1-1.1,0.2-1.8c-0.9-0.3-1.3-0.5-2.2-0.7
			c-0.4-0.5-0.6-0.7-1-1.1c0.1-1.2,0.1-1.8,0.2-3c0.4-0.2,0.7-0.4,1.1-0.6c1.2,0.3,1.7,0.5,3,0.8c0.4,0.5,0.6,0.7,1,1.2
			c0,0.5-0.1,0.8-0.1,1.3c-0.7-0.3-1-0.4-1.7-0.6c0-0.2,0-0.4,0-0.6c-0.7-0.2-1-0.3-1.7-0.5c0,0.7-0.1,1.1-0.1,1.8
			c0.9,0.3,1.4,0.4,2.3,0.8c0.4,0.5,0.6,0.8,1,1.3C844.6,188,844.5,188.7,844.4,189.9L844.4,189.9L844.4,189.9z"/>
	</g>
	<g>
		<path class="st0" d="M1092.8,175.1l-21.2,1.4c0,0,1.1,1.5,1.1,4.5l0,2.4l-4,0.1c-0.9,0-1.7-0.7-1.7-1.6l0.1-9.2
			c0-0.9,0.8-1.7,1.7-1.8l13.6-1.3c1.1-0.1,1.9,0.9,1.7,1.9c-0.2,1-0.7,1.6-0.7,1.6l6-0.5v-2.3c0-3-2.7-5.1-6-4.7l-16,1.8
			c-2.7,0.3-4.9,2.7-4.9,5.3l-0.1,9.9c0,2.7,2.1,4.8,4.8,4.8l14.9-0.2c1.1,0,2,0.8,2,1.8v9.8c0,1-0.9,1.8-2,1.7l-4.2-0.2l0.1-11.1
			l-5.2,0l-0.1,10.9l-4.3-0.2c-0.9,0-1.7-0.8-1.7-1.8v-0.9c0-3,0.9-3.7,0.9-3.7l-4.9-0.1l-0.1,5c0,2.7,2.1,5.1,4.9,5.3l5.3,0.4
			l0,4.4c0,3.1-1.2,4.7-1.2,4.7l21.7,2.5c4.8,0.5,8.8-2.5,8.8-6.8l-0.3-26.6C1101.4,177.9,1097.5,174.8,1092.8,175.1L1092.8,175.1
			L1092.8,175.1z M1095.3,208.3c0,1.6-1.5,2.9-3.3,2.7l-14.1-1.3l0-5.3l5.9,0.4c3.3,0.2,6.1-2.1,6.1-5.2l0-11.2c0-3-2.8-5.4-6.1-5.3
			l-5.8,0.2v-3.2l13.9-0.7c1.8-0.1,3.3,1.1,3.3,2.7L1095.3,208.3L1095.3,208.3L1095.3,208.3z"/>
		<path class="st0" d="M1102.5,214.6v0.4l-0.5-0.1l0,1.6l-0.5-0.1l0-1.6l-0.6-0.1v-0.4L1102.5,214.6L1102.5,214.6L1102.5,214.6z
			 M1104.3,214.8L1104.3,214.8l-0.5,1.1l-0.5-1.2l-0.5-0.1l0,2l0.5,0.1v-1.1l0.5,1h0.1l0.5-0.9v1.1l0.6,0.1l0-2L1104.3,214.8
			L1104.3,214.8L1104.3,214.8z"/>
	</g>
	<text transform="matrix(1 0 0 1 362.8639 145.092)" class="st1 st2">NAME</text>
	<text transform="matrix(1 0 0 1 388.7993 232.0919)" class="st1 st3">1</text>
</g>
<g id="Shadow">
	<path class="st4" d="M143.5,245.1c-3.7,18.4-5.7,36.7-9.2,55.1c-0.5,2.5,0.4,5,2.3,6.6c6.2,5.4,18.1,14.6,22.9,11.3
		c1.2-0.9,2.6-3,2-9"/>
	<path class="st4" d="M370.5,245.1c1.9,9.7,3.6,20,5.1,30.8c1.2,9,2.2,17.8,2.9,26.2c-5.8,6.6-11.6,10-15.5,11.8
		c-4.3,2-11.1,5.1-14.2,2.2c-2.6-2.4-1.1-7.8-0.7-9.2"/>
	<path class="st5" d="M349.5,297.1c-3.1,5.8-6.1,48.3-6.2,49.8v0c0,0.2-0.8,0.2-1.8,0.2v51c-12-40.3-22-74.4-14.8-104.6
		c0.5-1.9,0.9-5.8,3.2-9.9c11.2-19.6,23.3-29.9,36.8-34.5c0.8-0.3,1.5,0.5,1.2,1.2C364.8,258.5,352.2,292,349.5,297.1z"/>
	<path class="st6" d="M218.6,165.7c26.8,0,51.7,0.4,71.2,2.3c-5.9,14.4-18.8,24.8-35.4,33C236.4,190,222,178.5,218.6,165.7
		L218.6,165.7L218.6,165.7z"/>
	<path class="st7" d="M349.6,103.8l-3.7,6.6c-2.6,4.6-7.8,7.2-13.1,6.5l-13-1.7L349.6,103.8L349.6,103.8L349.6,103.8z"/>
	<path class="st8" d="M454.5,102.1l5.4,7.2c2.2,3,5.9,4.6,9.6,4.2l10.1-1L454.5,102.1L454.5,102.1L454.5,102.1z"/>
	<path class="st9" d="M485.5,175.1c-5,1-11.8,24.9-16,30c-2.5,3-5,13-5.7,17c-1.3,8.3,2.4,64.5,6.7,79
		C463.5,273.5,474.5,236.1,485.5,175.1z"/>
	<path class="st10" d="M635,283.6c-27.1-9.5-44.4-19-51.9-28.5c13,11.2,27.1,18.5,42.9,20.3L635,283.6L635,283.6L635,283.6z"/>
	<polygon class="st11" points="640,286.6 635,283.6 637.5,308.9 	"/>
	<path class="st9" d="M625.5,490.1l-47,7c18.5-0.2,30.3-0.6,42-1C623.5,495.8,625.1,493.8,625.5,490.1z"/>
	<path class="st12" d="M551.5,493.1l37,8.8c-7.3,0.8-14.3,1.3-22,0C555.3,499.3,548.2,496.5,551.5,493.1z"/>
	<path class="st13" d="M732.5,472.1l-38,14l24.6-1.8C732.2,480.2,736.9,476.1,732.5,472.1z"/>
	<path class="st14" d="M663.5,508.1l49-7l-21.2,8C682.8,512,673.4,511.2,663.5,508.1z"/>
	<path class="st9" d="M880.8,466.5c-2.9,4,18,2.6,50.7-1.4L880.8,466.5z"/>
	<path class="st15" d="M945.4,457.9c-13.8,5.2-30.8,7-51,5.2L945.4,457.9z"/>
	<path class="st16" d="M786.1,463.1c14,2.6,27.2,5.5,39.4,9c-14-1.9-30.1-3.7-36.1-6.3C786.4,465.6,786.3,464.3,786.1,463.1z"/>
	<path class="st16" d="M841,484.2c-10.5-2.8-20.6-5.5-30.5-8.2c6.2,4.1,12.8,7.7,20.8,9.4C836.4,486.2,842,486.3,841,484.2
		L841,484.2L841,484.2z"/>
	<path class="st12" d="M842.2,288.9c-14,3.2-25.4,2.3-34.2-2.5c1.1,3,7.4,5.2,21.9,6.1C839.5,291.2,841.4,290,842.2,288.9
		L842.2,288.9L842.2,288.9z"/>
	<path class="st14" d="M1114.5,498.1c-2.7,10.9-13.5,17.5-31.5,15.7l15.5-10.7C1104.2,499.9,1109.9,497.1,1114.5,498.1z"/>
	<path class="st17" d="M1182.5,312.5c-8.2,2.1-17.1,1.8-27-1.9C1164.5,307.5,1173.5,308.2,1182.5,312.5z"/>
	<path class="st18" d="M1013.3,230.6c4.6,12,32.7,19.8,87.1,20.4l15.1-1.5C1079.1,247.8,1044.7,241.6,1013.3,230.6L1013.3,230.6
		L1013.3,230.6z"/>
	<path class="st19" d="M642.8,337.1c3,12.9,4.9,24.8,4.2,34.5c0.9,9.5-2.6,21.2-7.3,33.5C635.7,383,636.7,360.4,642.8,337.1"/>
	<path class="st20" d="M895.5,222.1c-9.3-4.7-32.7-7.7-56-4C858.2,221.3,876.9,222.9,895.5,222.1z"/>
	<path class="st21" d="M808.5,216.1c-7.9,1.3-13.2,0.7-13.1-1.5C797.9,213.1,803.5,214.8,808.5,216.1z"/>
	<path class="st10" d="M1158.5,182.1c-0.2,16.2-0.3,32.3-0.4,48.5l7.8-0.3C1163.4,214.2,1160.9,198.2,1158.5,182.1z"/>
	<path class="st22" d="M717,152.6l27-6c4.9,10,5.9,21.1,4.4,33c-10.5,3-24.5,3.5-34.9,2.5C721.2,172.2,724.5,162.7,717,152.6z"/>
	<path class="st4" d="M893.5,178.1c4.1-5.5,19.5-2.5,37.5,4.5c0.8,8,0.3,16.8-1,26c-13.1-0.6-28.3-2.1-41.5-4.5
		C896.6,186,896,181.9,893.5,178.1L893.5,178.1z"/>
	<path class="st23" d="M633.5,160.1c0.7,0.8,0.4,1.3-0.9,1.4l-12-0.8c-0.9-0.1-1.8,0.5-2,1.4c-0.6,2.1-0.8,4.5-0.5,7.1h1.5l-0.4,2.4
		l-1-0.3c0.3,4.9,0.8,9.1,2.8,9.2l13.8,0.1c0.2,1.1,0.2,2.2-0.7,3l-13.2,0.5c-1.7-0.5-3-1.4-3.8-2.5c-1.6-3.6-2.6-7-1.8-9.5
		c-1.3-3.3-1-7.2,0-11.4c1.5-1.4,3.2-2.5,5-2.8l10.7,0.7C632.3,158.8,633.5,159.2,633.5,160.1L633.5,160.1L633.5,160.1z"/>
</g>
<g id="Shirt">
	<path class="st24" d="M218.6,165.7c-4.4,1.9-10.9,5.2-19,9.1c-13.4,6.4-20.6,7.3-34,11c-10.6,3-21.3,6.5-27.8,11
		c-2.9,13.1,0.9,34,8.8,59.5c2.3,8.5,3.9,14.2,6.9,25.6c2.9,11,8,22.7,9.4,35.1c1.4,11.6-0.7,24.2,0,37.1
		c0.7,12.6,0.9,25.5,1.8,38.5c1.5,13.3-4.4,108-4.4,110.9c0,3.3,1,6.8,2.2,9.1c4.2,8.2,18.3,22,34.9,25c11,3.6,29.6,8,53.9,4.8v3.4
		c7.1,0.5,14.4,0,21.6-1.5c12,0,27.5-2.5,44.2-5.8c12.5-3.4,22.3-11,29.6-22.6c2-26.4,1-52.3-2.6-77.8c-1.6-23.6-3-48-3.1-73
		c-0.1-18.8,5.7-54,5.7-54c0.3-8.9,16.9-47.2,19.9-54c11.4-26.4,7.9-57.4,4.4-58.6c-4.8-1.6-9.5-4-14.5-5.9
		c-5.3-2-10.5-3.9-15.6-5.6c-3.7-1.3-8.7-3.1-14.5-5.2c-5.2-1.9-10.7-3.3-17.3-6.4c-7.3-3.5-15-5.4-19.4-7.7
		S230.7,166.4,218.6,165.7L218.6,165.7L218.6,165.7z"/>
	<path class="st24" d="M341,366.5c5,10.3,11.6,19,20.3,25.8c10.3,5.6,20.8,9,31.4,10.1c21.3,3,38.2,1,51.3-5.3
		c14.3-9.9,24.9-22.3,29.6-38.4c-0.2-13-0.4-25.7-2.2-33.1c0.4-7.3-0.2-17.6-1.3-29.3V255c3-9.9,5.9-24.9,8.8-43.2
		c2.6-16.7,5.2-32.4,7.5-40.8c3.8-26.7,7.8-43.8,11.9-49c-4.2-2.7-9.4-5.6-15.4-8.2c-5.7-2.4-11-4.1-15.6-5.2
		c-10.4-4-17.7-9.6-21.2-10.1s-83.9-1.4-83.9-1.4s-15.4,9.1-23,10.6c-12.7,4.6-24.4,8.4-28.7,13.9c1.3,24.1,7.3,41.9,12.8,59.5
		l23.4,8.2l24.3,9.5c11.1,16.4-0.6,55-24.1,111C343.6,329.7,341.5,348.7,341,366.5L341,366.5L341,366.5z"/>
</g>
<g id="Sleeves">
	<path class="st24" d="M137.8,196.9c-2-5.3-25.9,44.2-25.6,47.5L92.5,281c1.4,3.4,14.4,13.2,26.3,23c13.3,10,27,15,41.1,14.9
		c1.6-1.9,1.9-4.7,2-7.7l-13.2-47.2l-10.1-39.5C136.7,215.1,136.2,205.9,137.8,196.9L137.8,196.9L137.8,196.9z"/>
	<path class="st24" d="M371,198.9c9.4,11.9,17.9,26.7,25.2,45.6c7.7,14,14.4,28.1,19.9,42.2c-8.6,7.1-18.4,13.6-29.2,19.7
		c-11.7,4.8-23.1,8.4-34,10.1c-1.8,0.2-3.4,0.3-4.8,0c-0.8,0.6-1.1-1.7,0-10.5c5.8-19.8,12.1-36.1,18.5-48.6
		C374.3,237.9,378.1,211.6,371,198.9L371,198.9L371,198.9z"/>
	<path class="st24" d="M287.5,167.2c6.7-17.6,14.5-32.4,23-45.6c-0.9,14.5,12.8,59.5,12.8,59.5L287.5,167.2L287.5,167.2z"/>
	<path class="st24" d="M498.3,122.1c-2.9,4.4-5.2,11.3-7.1,20.2c-2.6,12.5-3.2,22.1-4.4,26.6c-3.1,11.2-5.6,27.8-8.9,50.2
		c0.3,2.1,1,4.6,1.3,6.7c8.1-2.2,17-5.9,27-10.5c11.2-5.2,20.6-11,28.3-16.3C521.8,165.2,509,136.8,498.3,122.1L498.3,122.1
		L498.3,122.1z"/>
</g>
<g id="Collar">
	<path class="st24" d="M254.4,201c-5.5-2.6-8-5.3-21.2-14.9c-13.2-9.6-11.7-15.1-14.6-20.4l-18.1,8.6c2.1,9.2,9.1,16.4,17.7,22.8
		c15.2,11.4,25.2,22.4,23.9,31.7l0.8,63.6l1.5,53.8l2.8,109.2l4.3,87.8v2.3c7.1,0.8,13.7,0.8,19.4-0.9c1.2-20.8,0.7-44.5-0.9-69.6
		l-2.6-59.5c-1.9-32.8-3.4-63.5-3.1-85v-37.9c-1.3-22.8-1.8-44.6-1.3-65.3c0.2-3.8,1.4-8.1,5-12.2c6.4-9.7,15.5-15.6,20.2-19.5
		c2.5-1.6,4.9-4,9.7-8.9c4.1-4.1,7-9.1,8.8-12.5l-15.9-6.2c-2.6,4.9-7.8,12.4-14.6,18.9C267.9,194.9,259.7,198.9,254.4,201
		L254.4,201L254.4,201z"/>
	<path class="st24" d="M365.9,95.7c6-3.4,10.5-7.2,13.7-11.5c16.4-6.8,32.8-6.7,49.3,0c3.3,4.5,7.8,8.8,13.4,13L365.9,95.7
		L365.9,95.7z"/>
</g>
<g id="ShirtSeams">
	<path class="st24" d="M200.5,174.3l-2.6,1.4c0.3,5.4,5.3,12.7,16.8,22.1c12.5,10.2,24.9,20.3,24.7,30.2v68.7
		c1.4,11.1,1.6,30.8,1.8,51.3c2.1,19.1,2.4,46,2.2,74.9c1.4,31.5,3.1,66.5,3.1,78.7c1.1,10.8,1.8,26,2.2,41.3l2.4-1l-1.5-41.3
		c-1.7-9.7-2.8-47.1-4-78.2c0-28.5,0.4-55.4-1.3-75.4c-0.9-20.2-0.7-39.7-1.3-51.4c0.2-27-0.9-52.8-0.9-67.7
		c0.2-9-9.2-19.9-24.7-32.2C208.5,189.1,201,182,200.5,174.3L200.5,174.3z"/>
	<path class="st24" d="M306.5,174.4c-4.5,7.3-10.8,15-19.4,22.1c-16.3,12.8-22.3,21.1-23.9,27.4c-1.3,18.1-0.4,44,0.9,71.5
		c0,30.1-0.1,62.1,0.9,74.9l3.1,58.6l2.2,53.8c1,16.2,0.7,39.2,0.4,62.4c1.1-0.1,2.1-0.7,3.1-0.5l-0.9-61.9l-2.6-54.2l-2.2-57.6
		c-1-8.7-1.2-42.3-1.3-75.4c-1.2-26.6-1.8-51.4-0.9-70.1c2.5-8.7,12-17.7,23-26.9c6.6-5.1,13.3-11.7,20.3-22.6L306.5,174.4
		L306.5,174.4L306.5,174.4z"/>
	<path class="st24" d="M412.6,277.6l0.4,2.4c-11.9,7.9-19.5,13.3-24.3,17.3c-10.7,6-24.8,10-41.1,12.5l0.9-3.4
		c13.2-1.2,25.5-4.3,37.5-10c1.8-1,3.5-2.5,4.8-4.1c2.4-1.9,4.4-3.3,6.4-4.7C403.3,283.4,409.7,279.3,412.6,277.6L412.6,277.6z"/>
	<path class="st24" d="M161.6,310.5l-0.9-2.9c-11.9,0.4-23.4-3.3-35.8-10.8l-27.8-24l-1.8,1.9l28.7,24.5
		C136,306.7,148.1,310.2,161.6,310.5L161.6,310.5L161.6,310.5z"/>
	<path class="st24" d="M531.2,190.3l0.6,1.8c-8.1,5.3-16.7,10.4-25.6,15.1c-9.1,4.7-18.5,9.1-28.1,13.1l-0.2-2.3
		c8.9-3.6,18-7.9,27.2-12.7C514.3,200.4,522.9,195.3,531.2,190.3L531.2,190.3L531.2,190.3z"/>
	<path class="st24" d="M366.2,95.7l-4,1.4c28.5,1.4,56.5,1.9,83.9,1.4l-3.8-1.4C417,95.7,391.6,95.2,366.2,95.7z"/>
</g>
<g id="Buttons">
	<ellipse class="st24" cx="255.1" cy="304.7" rx="2.9" ry="3.6"/>
	<ellipse class="st24" cx="255.5" cy="362.3" rx="2.9" ry="3.6"/>
	<ellipse class="st24" cx="257.7" cy="419.9" rx="2.9" ry="3.6"/>
	<ellipse class="st24" cx="254.6" cy="213" rx="2.9" ry="3.6"/>
	<ellipse class="st24" cx="253.3" cy="236.1" rx="2.9" ry="3.6"/>
	<ellipse class="st24" cx="260.4" cy="479.4" rx="2.9" ry="3.6"/>
</g>
<g id="Pants">
	<path class="st24" d="M586.5,149.1c-0.3,0.6-0.6,1.2-0.8,1.7c-3.6,7.8-3.5,15.2,0.8,22.3c-4.7,20-9.3,40-14,60
		c-3.5,6.6-5.4,13-5,19l-9,69c-3.6,29.7-3.4,51.2,0,66.1c-4.3,12-6,24.3-4,36.9c-3.1,10.5-4.1,20.5-2,30c-6.1,14.5-8.9,28.2-1,39
		c-3.8,6.6-1.8,14.1,4,22l-1,9c7.9,12.5,26.4,16.3,65,4c4-3.4,3.8-9.7,1-18c8.4-7.1,10-13.8,5-20c1.6-10.5,4.1-17.8,8-20
		c0-9.9-0.4-19.1-2-26c5.5-8.5,7.7-20,7-34c2.8-12.8,9-25.4,8.5-38.5c-0.5-15.7-2.3-31.7-8-47.2c-0.5-5.7-1.7-11.3-2-16.8
		c-1-16.1-2.1-23.7-2-24c1-0.5,5,3,5,3c-0.7,1.2-2.6,13-2,19c-0.1,16.4,3.9,29.8,7.5,38.5c0.8,16.4,4.9,46.8,9,77
		c-0.4,10.4,0.6,21.1,3,32v18c-4.4,10.6-5.1,19.3,2,24c-0.8,4.3,0.7,8.6,5,13c0.1,6.2,4,13,10.1,20v6.3c8.2,16.8,30.4,13,63.9-7.3
		c-1.8-9.2-1.8-18.2,0-27.1c3.9-6.7,0.5-13-6-17.9c-2-1.5,2.3-4.8,1-11l-4-15c3.2-7.8,2.7-15.4-4-23c6.1-12.3,9.4-28,10-47l-1-21
		c2.6-9.7,4.2-18.9,4-27.2c8.2-11.4,12.7-25.3,11-43.8c10.1-15.5,10.6-54.9,1-115.1c1.4-12.8,0.6-26.8-6.2-34.9
		c-2.2,0.5-5.2,1.2-8.8,2c-0.4,0.1-10.3,2.2-21,4c-17.7,2.9-35.3,4.5-41,5h-9c-23.6,2.4-45.7,2.9-65,0l-8-2
		C589.1,152.3,587.6,150.8,586.5,149.1z"/>
	<path class="st24" d="M868,377.6l7,28c-1.3,7.5-0.1,15.6,3,24c-1.6,5-2.2,10.2-2.1,15.5c0,0.9,0.6,1.7,1.4,2l3.6,1.5
		c-0.5,5.5,0.2,10.8,2,16c-4.7,2.5-4.5,9.5,0,20.3c-1.3,3.4-1.2,7,0,10.7c18.3,4.1,36.7,4.1,55,0c2-4,2.6-8.3,1-13
		c7.7-3.1,9-8.1,1-16c7.6-1.5,6.4-13.9,2-30V413c2.7-35.7,4-69.5,3-100.4l-2.4-44.5l-2.6-18.5l-8-27c0.6-5.4,0.2-10.5-2-15
		c1.4-8.8,1.8-17.4,1-26c-18.1-5.3-32.6-8.4-37-5c2.2,5.9,1.2,11-1,16c-14.1-2.7-28.8-3.7-44-3l3.7-14.9c0.1-0.6-0.3-1.1-0.9-1.1
		c-9.8,0.1-27.7,0.8-31.2,1c-0.4,0-0.7,0.2-0.8,0.6c-1,2.2-4.6,10.5-6.8,15.5c-6-0.3-10.2,1.4-12,6c-20.6,60.8-12,84.5-4,109l2,38.9
		c-1.6,21-1.6,39.9,2,54.4v15.3l-4,12.8l-4,19.5l-10,24c0,0.1-1.7,9.2-1.7,9.4c-1.4,1.4-3.8,13.8-2.3,12.6c8,1.2,17.1,3,26.8,5.8
		c8.8,2.5,17.6,5.6,26.2,9.2l2-12l5.3-3.8c1-0.8,1.7-2,1.7-3.2v-4.3c7.2-4.1,9.8-8.9,7-14.7c4.3,1.7,5.7-1.1,3-10
		c3.9-13.2,7.2-25.7,7-34c3.1-15,6.3-30,9.4-45c0.3-1.7,1.2-4.6,0.4-6c-0.2-0.3-0.4-0.5-0.6-0.7c-0.6-0.8-0.7-1.9-0.7-2.9
		c0-2.5,0-5,0.1-7.4c0-3-0.4-6.6-1.8-9.4c-0.4-0.8-0.9-1.6-1.2-2.5c-0.5-1.3-0.5-2.7-0.6-4c-0.2-3.6-0.5-7.3-1.1-10.9
		c-0.1-0.9-0.3-1.7-0.7-2.5c-0.4-0.7-1.1-1.3-1.6-1.9c-1.2-1.4-2.1-3.1-2.1-5s0.9-3.7,2.5-4.6c-3.5-4.5-7-9.1-8.8-14.5
		c-0.5-1.6-0.9-3.3-1.3-5c-1-4-2.5-7.8-4.4-11.5c-3.5-2.1-5.3-6-7.9-9c-2.1-2.4-4.8-4.2-7-6.5c-4.8-4.9-7.5-11.4-10.1-17.8"/>
	<path class="st24" d="M813,190.6c-0.2,1.7-1,6-1,6s-0.8,2.3-1.2,3.2c5.9,0.6,12.6,1,19.8,0.9c6.3-0.1,12.1-0.5,17.4-1
		c0.3-3.3,0.7-6.7,1-10"/>
	<path class="st24" d="M622,269.6c4.8,2,9.1,2.4,12.8-3.2c0.6-0.9,0.7-2,0.4-3.1c-8.2-25.7-7.3-56.6-0.1-82.8c-5,0.5-9.9,0.8-13,0
		C615.7,205,614,238.8,622,269.6c3.7,7.6,13,14,13,14"/>
</g>
<g id="PantsSeams">
	<path class="st24" d="M883,484.6c-0.3,1-0.7,2-1,3c8.7,0.7,18.3,1,28.7,0.8c10.6-0.3,20.3-1.1,29.1-2.2c-0.3-1.2-0.5-2.3-0.8-3.5
		c-8.4,1.4-18,2.6-28.8,2.9C900.1,485.8,891,485.4,883,484.6L883,484.6z"/>
	<path class="st24" d="M780,484.6c0.3-1.3,0.7-2.7,1-4c8.2,0.7,18.4,2.2,29.6,5.6c9.2,2.8,17,6.2,23.4,9.4l-1,3
		C819.3,491.8,802.2,487.3,780,484.6z"/>
	<path class="st24" d="M737,516.6v3c-27.7,15.8-47.2,17.9-62,12v-3C690.6,535.2,712.5,528.8,737,516.6z"/>
	<path class="st24" d="M621,512.6l1,3c-22.5,10.5-44.7,13.9-67,5v-3C577.1,525.4,598.5,522.5,621,512.6z"/>
	<path class="st24" d="M840,214.6v3c23.8-1.6,45.7-1.3,55.4,4.1l0.6-3.2C887.8,213.7,869.2,212.3,840,214.6L840,214.6z"/>
	<path class="st24" d="M840,218.7v5.5c18.3,3.3,36.3,4.5,54,3.4l1.4-5.1C877.1,222.8,858.6,221.4,840,218.7z"/>
	<path class="st24" d="M808,215.6c-6.9-1.6-12.3-2.5-12.6-1l0.7-2.4c3-0.5,6.7,0.2,11.9,1.4V215.6z"/>
	<path class="st24" d="M808,216.6v4.1c-8.1-0.6-14.3-1.3-13.7-2l0.8-3C797,216.7,802.5,216.6,808,216.6L808,216.6L808,216.6z"/>
</g>
<g id="Belt">
	<path class="st24" d="M585.6,150.8c-3.8,8.8-3.2,15.9,0.6,21.8l7.8,3c-3.9-8.9-5.6-16-4.2-20.6C587.3,153.5,585.6,152,585.6,150.8
		L585.6,150.8L585.6,150.8z"/>
	<path class="st24" d="M594,156.2c-1.1,3-0.7,6,0,8.6c1.5,4.6,3.1,8.5,5,11.8l17,3c-1.2-5-2.7-9.4-1-19
		C605.2,158.9,597.1,157.4,594,156.2z"/>
	<path class="st24" d="M619,160.6c-1.1,2.8-1.3,5.8-1,9h1.6v1.7H618c0.1,7,1.5,9.7,4,9.3h12.6l1.4,1c-0.7-0.2,4.2,1.1,7,1
		c0.1-1.8,1.2-2.7,3.1-3l19.9-1c-1.8-7-2.5-13.7-2-20l-22,2.2v-2.9h-7.2l-0.8,3.7L619,160.6z"/>
	<path class="st24" d="M717.8,153.8c-0.3-0.5-0.6-0.9-0.8-1.2c-10.7,2.2-41.6,5.4-45,5c-0.7,6.1,0,12.7,2,20c15.5-1.6,34.3-3.1,45-5
		c0.8-1.6,1.8-4,2-7c0.3-3.9-0.8-7.2-1.9-9.5C718.5,155.4,718,154.7,717.8,153.8z"/>
	<path class="st24" d="M819,176.6l-6,14c-6.3-0.3-10,1-11,4l1.9-9C805.2,179,810.8,176.5,819,176.6z"/>
	<path class="st24" d="M853,175.6c-0.5,2.7-1.7,8-3,14c24.8,0.4,39.1,1.4,43,3c2.6-6.9,3.8-12.9,0-16
		C880.7,175.6,867.4,175.3,853,175.6z"/>
</g>
<g id="Socks">
	<path class="st24" d="M998,324.6c13.1-17.1,29.3-26.3,48-29c15.4,12.8,27.3,30.5,37,51c11.4,16.8,28.1,44,46,74
		c5.3,3.4,11.9,8.8,19,15c-6.7,6.7-14.1,11.2-22,14l5,12l-17,23l7,4l-11,18c-2.2,6.1-13.1,8.1-30,7c-13.5-8.2-21.2-15.8-16-22
		c2.7-0.8,18-5.4,26-21c11.7-20.1-0.3-39.8-2-41C1074.2,414.4,1060.2,398.6,998,324.6L998,324.6z"/>
	<path class="st24" d="M1141,303.6c21.7,12.9,40.1,13.6,55,2c4.7,25.3-0.8,56.4-9,89c-4.1,14.7-5.9,29.9-5.1,45.9
		c0,0.7-0.1,1.4-0.3,2.1c-1.1,3.8-1,8.1,0.3,13c5.1,12.5,6.6,23.6,7,35c4.6,4.5,5.7,9.2,4,14c-1.8-1.7-4.8-2.8-9-3l-24-3
		c-0.6-0.2-3.3-1-5.9,0.3c-1,0.5-1.7,1.2-2.1,1.7c0.1-2.2,0.4-4.9,1.1-7.8c0.5-2.4,1.2-4.4,1.9-6.2l-1-21c8.3-7.5,9.4-15.7-1-25
		c1.2-16.3,0.1-33-3-50l-4-19C1138.1,347.6,1136.6,325,1141,303.6L1141,303.6L1141,303.6z"/>
	<path class="st24" d="M1141,302.6c4.1-2.4,15.3-8.2,30.3-6.9c12.1,1,20.7,6.2,24.7,8.9c-3.2,4.1-8.1,6.3-13.5,7.9
		c-8.4-4.5-17.5-4.8-27-1.9C1150.1,309.2,1145.3,306.4,1141,302.6z"/>
</g>
<g id="SockDesign">
	<path class="st24" d="M1063,492.6c-4.1,2.2-11.5,6.6-11,11c0.6,5.1,11.7,9.1,28,10c-1.1-0.6-20-11-18-19
		C1062.1,493.9,1062.5,493.3,1063,492.6z"/>
	<path class="st24" d="M1152,500.6c0.3,8.5,3.8,11.2,5,12c2.6,1.7,3.1,1,14,1c10,0,11.4,0,14-1c3.7-1.4,6.2-5.1,8-8
		c-3.5-2.3-8.1-2.9-12-3c-6.4-0.1-10.5-0.8-13.2-1.5c-3.5-0.9-3.6-1.3-5.8-1.5C1157.9,498.2,1154.4,499.4,1152,500.6z"/>
	<path class="st24" d="M1148,435.6c-6.7,6.6-14.1,11.2-22,14l5,12l-17,23l7,4c10.8-9.5,21.8-17.4,33-23
		C1166.1,457.5,1161.5,447.2,1148,435.6z"/>
	<path class="st24" d="M1004.3,332.1l1.9,2.3c11.5-16.4,27.4-26.7,47.5-31.6l-2.5-2.4C1031.3,305.6,1015.5,316,1004.3,332.1
		L1004.3,332.1L1004.3,332.1z"/>
	<path class="st24" d="M1008.4,337l2,2.4c13.1-14.3,29.3-24.6,48.4-31.1l-2.2-2.4C1037,312.5,1020.7,322.6,1008.4,337L1008.4,337
		L1008.4,337z"/>
	<path class="st24" d="M1013.1,342.6l2.3,2.7c13.1-13.2,29.2-23.4,48.9-30.2l-2-2.6C1042,318.1,1025.8,328.3,1013.1,342.6
		L1013.1,342.6L1013.1,342.6z"/>
	<path class="st24" d="M1139.5,312.5l-0.3,2.8c22.9,12.6,43.4,17.3,58.3,3.6l-0.2-3.2C1183.8,328.8,1163,324.1,1139.5,312.5
		L1139.5,312.5L1139.5,312.5z"/>
	<path class="st24" d="M1138.8,320.1l-0.2,3.4c24.3,12.6,44.7,15.6,58.9,2.6v-3C1183.1,336.2,1162.5,332.2,1138.8,320.1
		L1138.8,320.1L1138.8,320.1z"/>
	<path class="st24" d="M1138.6,328.2l0.1,3.5c25.2,13.6,45.2,15.4,58.9,2.7v-3.1C1184.5,343.1,1163.8,340,1138.6,328.2L1138.6,328.2
		L1138.6,328.2z"/>
	<path class="st24" d="M1155.5,310.6c9.4-3.2,18.4-2.9,27,1.9C1173.9,314.9,1164.9,313.9,1155.5,310.6z"/>
</g>
<g id="CapFront">
	<path class="st24" d="M1119,128.6h5.9c35.3,12,35.8,56,33.1,103c-44,2.5-82.1,0.5-104.2-14.1c-0.2-24.7,0.8-45.6,3.9-59.4
		c0.7-3.2,2.1-6.2,4.1-8.8C1073.6,133.8,1093.3,127.6,1119,128.6L1119,128.6z"/>
	<path class="st24" d="M1131,127.1c0,1.9-2.7,1.5-6,1.5s-6,0.4-6-1.5s2.7-3.5,6-3.5S1131,125.2,1131,127.1z"/>
</g>
<g id="CapBack">
	<path class="st24" d="M1127.4,128.6c23.1,1.3,43,5.6,56.7,15.8c3.4,2.5,6.2,5.9,8,9.7c7.2,14.9,8.7,35.9,7.9,59.5
		c-2.8,10.2-18.1,15.7-42,18C1163.6,175.3,1153.9,140.3,1127.4,128.6L1127.4,128.6z"/>
</g>
<g id="Visor">
	<path class="st24" d="M1053.8,209.5c-44.8,11.1-50.5,21.8-26.8,32c19.6,6.3,41.1,9.3,64,10c21.4-1.2,41.4-3.9,59-9
		c16.6-5.3,23.8-9.6,22.8-13.1c-55.5,6.6-96.4,3.5-118.9-12L1053.8,209.5L1053.8,209.5L1053.8,209.5z"/>
</g>
</svg>
